<svg height="240" viewBox="0 0 128 128" width="240" xmlns="http://www.w3.org/2000/svg"><g id="Money_Circulation" data-name="Money Circulation"><path d="m91.874 54.537a30.956 30.956 0 1 1 -3.1-13.5 30.96 30.96 0 0 1 3.1 13.5z" fill="#ffce33"/><path d="m87.882 39.392a6.1 6.1 0 0 1 -3.547 8.781l-.1.028a14.331 14.331 0 0 1 -18.3-13.794 13.972 13.972 0 0 1 .426-3.448l.017-.07a6.092 6.092 0 0 1 8.654-3.889 31.041 31.041 0 0 1 12.85 12.392z" fill="#ffe564"/><path d="m45.732 81.542a6.1 6.1 0 0 0 8.781-3.548l.029-.1a14.335 14.335 0 0 0 -13.794-18.294 14.028 14.028 0 0 0 -3.449.426l-.069.017a6.091 6.091 0 0 0 -3.89 8.653 31.029 31.029 0 0 0 12.392 12.846z" fill="#ffe564"/><path d="m103.591 32.327 1.24 2.265a.437.437 0 0 0 .174.175l2.266 1.239a.44.44 0 0 1 0 .772l-2.266 1.239a.444.444 0 0 0 -.174.175l-1.24 2.266a.439.439 0 0 1 -.771 0l-1.239-2.266a.446.446 0 0 0 -.175-.175l-2.266-1.239a.44.44 0 0 1 0-.772l2.266-1.239a.44.44 0 0 0 .175-.175l1.239-2.265a.439.439 0 0 1 .771 0z" fill="#ffe266"/><path d="m95.505 17.7 1.82 3.328a.636.636 0 0 0 .257.257l3.328 1.82a.646.646 0 0 1 0 1.134l-3.328 1.82a.642.642 0 0 0 -.257.257l-1.82 3.328a.646.646 0 0 1 -1.134 0l-1.82-3.328a.648.648 0 0 0 -.257-.257l-3.328-1.82a.646.646 0 0 1 0-1.134l3.328-1.82a.642.642 0 0 0 .257-.257l1.82-3.328a.646.646 0 0 1 1.134 0z" fill="#ffe266"/><circle cx="60.91" cy="54.539" fill="#ffbc15" r="24.205"/><path d="m60.877 79.741a25.2 25.2 0 1 1 25.2-25.2 25.232 25.232 0 0 1 -25.2 25.2zm0-48.408a23.2 23.2 0 1 0 23.2 23.2 23.23 23.23 0 0 0 -23.2-23.2z" fill="#f49600"/><path d="m60.877 53.537c-2.235 0-4.054-1.515-4.054-3.376s1.819-3.376 4.054-3.376 4.055 1.515 4.055 3.376a1 1 0 0 0 2 0 5.614 5.614 0 0 0 -5.055-5.3v-2.779a1 1 0 0 0 -2 0v2.783a5.614 5.614 0 0 0 -5.054 5.3c0 2.964 2.716 5.376 6.054 5.376 2.236 0 4.055 1.514 4.055 3.376s-1.819 3.376-4.055 3.376-4.054-1.515-4.054-3.376a1 1 0 0 0 -2 0 5.614 5.614 0 0 0 5.054 5.3v2.783a1 1 0 0 0 2 0v-2.791a5.614 5.614 0 0 0 5.055-5.3c0-2.96-2.716-5.372-6.055-5.372z" fill="#fff"/><g fill="#339eef"><path d="m23.623 32.178a1 1 0 0 1 -.858-1.512 38.6 38.6 0 0 1 14.835-14.187 1 1 0 1 1 .95 1.76 36.6 36.6 0 0 0 -14.067 13.451 1 1 0 0 1 -.86.488z"/><path d="m40.661 21.88a.989.989 0 0 1 -.288-.042 1 1 0 0 1 -.671-1.245l1.412-4.713a.221.221 0 0 0 -.131-.243l-4.713-1.411a1 1 0 1 1 .574-1.916l4.713 1.411a2.2 2.2 0 0 1 1.473 2.733l-1.412 4.713a1 1 0 0 1 -.957.713z"/><path d="m87.259 90.637a1 1 0 0 1 -.559-1.829 36.609 36.609 0 0 0 12.688-14.764 1 1 0 1 1 1.809.852 38.585 38.585 0 0 1 -13.381 15.571.993.993 0 0 1 -.557.17z"/><path d="m89.174 94.56a1.067 1.067 0 0 1 -.193-.018l-4.828-.942a2.2 2.2 0 0 1 -1.733-2.577l.944-4.827a1 1 0 1 1 1.963.384l-.944 4.828a.2.2 0 0 0 .154.229l4.828.944a1 1 0 0 1 -.191 1.981z"/></g></g></svg>